<?xml version="1.0" encoding="UTF-8" standalone="no"?>
<!DOCTYPE svg PUBLIC "-//W3C//DTD SVG 1.1//EN"
 "http://www.w3.org/Graphics/SVG/1.1/DTD/svg11.dtd">
<!-- Generated by graphviz version 2.40.1 (20161225.0304)
 -->
<!-- Title: gocallvis Pages: 1 -->
<svg width="571pt" height="679pt"
 viewBox="0.00 0.00 570.82 678.80" xmlns="http://www.w3.org/2000/svg" xmlns:xlink="http://www.w3.org/1999/xlink">
<g id="graph0" class="graph" transform="scale(1 1) rotate(0) translate(0 678.8)">
<title>gocallvis</title>
<polygon fill="#d3d3d3" stroke="transparent" points="0,0 0,-678.8 570.8165,-678.8 570.8165,0 0,0"/>
<text text-anchor="middle" x="48.8373" y="-8.2" font-family="Arial" font-size="14.00" fill="#000000">geeorm/main</text>
<g id="clust1" class="cluster">
<title>cluster_focus</title>
<polygon fill="#e6ecfa" stroke="#000000" stroke-width=".5" points="8,-32.8 8,-670.8 562.8165,-670.8 562.8165,-32.8 8,-32.8"/>
<text text-anchor="middle" x="285.4082" y="-650.6" font-family="Arial" font-size="18.00" fill="#000000">clause</text>
</g>
<g id="clust3" class="cluster">
<title>cluster_geeorm/session</title>
<g id="a_clust3"><a xlink:href="/?f=geeorm/session" xlink:title="package: geeorm/session">
<polygon fill="#ffffe0" stroke="#000000" stroke-width=".8" points="16,-84.8 16,-632.8 112.4243,-632.8 112.4243,-84.8 16,-84.8"/>
<text text-anchor="middle" x="64.2122" y="-614.4" font-family="Tahoma bold" font-size="16.00" fill="#000000">session</text>
</a>
</g>
</g>
<g id="clust4" class="cluster">
<title>cluster_*geeorm/session.Session</title>
<g id="a_clust4"><a xlink:href="/?f=geeorm/session" xlink:title="type: *geeorm/session.Session">
<path fill="#eed8ae" stroke="#000000" stroke-width=".5" d="M36,-92.8C36,-92.8 92.4243,-92.8 92.4243,-92.8 98.4243,-92.8 104.4243,-98.8 104.4243,-104.8 104.4243,-104.8 104.4243,-585.8 104.4243,-585.8 104.4243,-591.8 98.4243,-597.8 92.4243,-597.8 92.4243,-597.8 36,-597.8 36,-597.8 30,-597.8 24,-591.8 24,-585.8 24,-585.8 24,-104.8 24,-104.8 24,-98.8 30,-92.8 36,-92.8"/>
<text text-anchor="middle" x="64.2122" y="-101.3" font-family="Tahoma bold" font-size="15.00" fill="#222222">(*Session)</text>
</a>
</g>
</g>
<g id="clust2" class="cluster">
<title>cluster_*geeorm/clause.Clause</title>
<g id="a_clust2"><a xlink:title="type: *geeorm/clause.Clause">
<path fill="#b0c4de" stroke="#000000" stroke-width=".5" d="M181.4243,-234.8C181.4243,-234.8 235.4243,-234.8 235.4243,-234.8 241.4243,-234.8 247.4243,-240.8 247.4243,-246.8 247.4243,-246.8 247.4243,-361.8 247.4243,-361.8 247.4243,-367.8 241.4243,-373.8 235.4243,-373.8 235.4243,-373.8 181.4243,-373.8 181.4243,-373.8 175.4243,-373.8 169.4243,-367.8 169.4243,-361.8 169.4243,-361.8 169.4243,-246.8 169.4243,-246.8 169.4243,-240.8 175.4243,-234.8 181.4243,-234.8"/>
<text text-anchor="middle" x="208.4243" y="-243.3" font-family="Arial" font-size="15.00" fill="#222222">(*Clause)</text>
</a>
</g>
</g>
<!-- geeorm/clause._insert -->
<g id="node1" class="node">
<title>geeorm/clause._insert</title>
<ellipse fill="#add8e6" stroke="#000000" stroke-width=".5" cx="354.8375" cy="-137.8" rx="27" ry="18"/>
<text text-anchor="middle" x="354.8375" y="-133.6" font-family="Verdana" font-size="14.00" fill="#000000">_insert</text>
</g>
<!-- geeorm/clause._values -->
<g id="node2" class="node">
<title>geeorm/clause._values</title>
<ellipse fill="#add8e6" stroke="#000000" stroke-width=".5" cx="354.8375" cy="-198.8" rx="28.899" ry="18"/>
<text text-anchor="middle" x="354.8375" y="-194.6" font-family="Verdana" font-size="14.00" fill="#000000">_values</text>
</g>
<!-- geeorm/clause.genBindVars -->
<g id="node3" class="node">
<title>geeorm/clause.genBindVars</title>
<ellipse fill="#add8e6" stroke="#000000" stroke-width=".5" cx="508.5336" cy="-198.8" rx="46.0667" ry="18"/>
<text text-anchor="middle" x="508.5336" y="-194.6" font-family="Verdana" font-size="14.00" fill="#000000">genBindVars</text>
</g>
<!-- geeorm/clause._values&#45;&gt;geeorm/clause.genBindVars -->
<g id="edge2" class="edge">
<title>geeorm/clause._values&#45;&gt;geeorm/clause.genBindVars</title>
<path fill="none" stroke="#000000" d="M383.7466,-198.8C402.9865,-198.8 428.9014,-198.8 452.1291,-198.8"/>
<polygon fill="#000000" stroke="#000000" points="452.2341,-202.3001 462.2341,-198.8 452.2341,-195.3001 452.2341,-202.3001"/>
</g>
<!-- geeorm/clause._select -->
<g id="node4" class="node">
<title>geeorm/clause._select</title>
<ellipse fill="#add8e6" stroke="#000000" stroke-width=".5" cx="508.5336" cy="-345.8" rx="27" ry="18"/>
<text text-anchor="middle" x="508.5336" y="-341.6" font-family="Verdana" font-size="14.00" fill="#000000">_select</text>
</g>
<!-- geeorm/clause._limit -->
<g id="node5" class="node">
<title>geeorm/clause._limit</title>
<ellipse fill="#add8e6" stroke="#000000" stroke-width=".5" cx="354.8375" cy="-286.8" rx="27" ry="18"/>
<text text-anchor="middle" x="354.8375" y="-282.6" font-family="Verdana" font-size="14.00" fill="#000000">_limit</text>
</g>
<!-- geeorm/clause._where -->
<g id="node6" class="node">
<title>geeorm/clause._where</title>
<ellipse fill="#add8e6" stroke="#000000" stroke-width=".5" cx="354.8375" cy="-347.8" rx="27.626" ry="18"/>
<text text-anchor="middle" x="354.8375" y="-343.6" font-family="Verdana" font-size="14.00" fill="#000000">_where</text>
</g>
<!-- geeorm/clause._orderBy -->
<g id="node7" class="node">
<title>geeorm/clause._orderBy</title>
<ellipse fill="#add8e6" stroke="#000000" stroke-width=".5" cx="354.8375" cy="-408.8" rx="34.3267" ry="18"/>
<text text-anchor="middle" x="354.8375" y="-404.6" font-family="Verdana" font-size="14.00" fill="#000000">_orderBy</text>
</g>
<!-- geeorm/clause._update -->
<g id="node8" class="node">
<title>geeorm/clause._update</title>
<ellipse fill="#add8e6" stroke="#000000" stroke-width=".5" cx="354.8375" cy="-469.8" rx="29.6565" ry="18"/>
<text text-anchor="middle" x="354.8375" y="-465.6" font-family="Verdana" font-size="14.00" fill="#000000">_update</text>
</g>
<!-- geeorm/clause._delete -->
<g id="node9" class="node">
<title>geeorm/clause._delete</title>
<ellipse fill="#add8e6" stroke="#000000" stroke-width=".5" cx="354.8375" cy="-530.8" rx="27.2531" ry="18"/>
<text text-anchor="middle" x="354.8375" y="-526.6" font-family="Verdana" font-size="14.00" fill="#000000">_delete</text>
</g>
<!-- geeorm/clause._count -->
<g id="node10" class="node">
<title>geeorm/clause._count</title>
<ellipse fill="#add8e6" stroke="#000000" stroke-width=".5" cx="354.8375" cy="-591.8" rx="27" ry="18"/>
<text text-anchor="middle" x="354.8375" y="-587.6" font-family="Verdana" font-size="14.00" fill="#000000">_count</text>
</g>
<!-- geeorm/clause._count&#45;&gt;geeorm/clause._select -->
<g id="edge10" class="edge">
<title>geeorm/clause._count&#45;&gt;geeorm/clause._select</title>
<path fill="none" stroke="#000000" d="M372.7611,-578.2302C378.4369,-573.4193 384.4711,-567.7204 389.2508,-561.8 438.8254,-500.3927 478.8234,-415.5033 497.3539,-372.7322"/>
<polygon fill="#000000" stroke="#000000" points="500.6772,-373.8622 501.3906,-363.2914 494.2409,-371.1102 500.6772,-373.8622"/>
</g>
<!-- geeorm/clause.init -->
<g id="node11" class="node">
<title>geeorm/clause.init</title>
<ellipse fill="#add8e6" stroke="#000000" stroke-width=".5" cx="64.2122" cy="-58.8" rx="27" ry="18"/>
<text text-anchor="middle" x="64.2122" y="-54.6" font-family="Verdana" font-size="14.00" fill="#000000">init</text>
</g>
<!-- geeorm/clause.init#1 -->
<g id="node12" class="node">
<title>geeorm/clause.init#1</title>
<ellipse fill="#add8e6" stroke="#000000" stroke-width=".5" cx="208.4243" cy="-58.8" rx="27" ry="18"/>
<text text-anchor="middle" x="208.4243" y="-54.6" font-family="Verdana" font-size="14.00" fill="#000000">init#1</text>
</g>
<!-- geeorm/clause.init&#45;&gt;geeorm/clause.init#1 -->
<g id="edge16" class="edge">
<title>geeorm/clause.init&#45;&gt;geeorm/clause.init#1</title>
<path fill="none" stroke="#000000" d="M91.3374,-58.8C113.8973,-58.8 146.2383,-58.8 171.2165,-58.8"/>
<polygon fill="#000000" stroke="#000000" points="171.4208,-62.3001 181.4207,-58.8 171.4207,-55.3001 171.4208,-62.3001"/>
</g>
<!-- (*geeorm/clause.Clause).Set -->
<g id="node13" class="node">
<title>(*geeorm/clause.Clause).Set</title>
<ellipse fill="#add8e6" stroke="#000000" stroke-width="1.5" cx="208.4243" cy="-347.8" rx="27" ry="18"/>
<text text-anchor="middle" x="208.4243" y="-343.6" font-family="Verdana" font-size="14.00" fill="#000000">Set</text>
</g>
<!-- (*geeorm/clause.Clause).Set&#45;&gt;geeorm/clause._insert -->
<g id="edge1" class="edge">
<title>(*geeorm/clause.Clause).Set&#45;&gt;geeorm/clause._insert</title>
<path fill="none" stroke="#000000" stroke-dasharray="5,2" d="M228.4486,-335.5225C235.1587,-330.6548 242.243,-324.5915 247.4243,-317.8 273.0553,-284.2034 264.4082,-267.5368 283.4243,-229.8 297.6934,-201.4835 300.2069,-193.2272 320.4243,-168.8 323.3291,-165.2903 326.6337,-161.8158 330.0189,-158.5327"/>
<polygon fill="#000000" stroke="#000000" points="332.4436,-161.0578 337.4343,-151.712 327.7048,-155.9058 332.4436,-161.0578"/>
</g>
<!-- (*geeorm/clause.Clause).Set&#45;&gt;geeorm/clause._values -->
<g id="edge3" class="edge">
<title>(*geeorm/clause.Clause).Set&#45;&gt;geeorm/clause._values</title>
<path fill="none" stroke="#000000" stroke-dasharray="5,2" d="M228.3531,-335.4487C235.0542,-330.5741 242.1573,-324.5253 247.4243,-317.8 271.9655,-286.4643 256.1999,-264.835 283.4243,-235.8 293.3946,-225.1667 307.1082,-217.053 319.8545,-211.1721"/>
<polygon fill="#000000" stroke="#000000" points="321.5246,-214.2642 329.3351,-207.1055 318.7651,-207.8311 321.5246,-214.2642"/>
</g>
<!-- (*geeorm/clause.Clause).Set&#45;&gt;geeorm/clause._select -->
<g id="edge4" class="edge">
<title>(*geeorm/clause.Clause).Set&#45;&gt;geeorm/clause._select</title>
<path fill="none" stroke="#000000" stroke-dasharray="5,2" d="M226.4043,-334.2102C233.0546,-329.1207 240.6267,-323.2509 247.4243,-317.8 280.4096,-291.3496 280.6787,-271.2202 320.4243,-256.8 349.1798,-246.3672 360.219,-247.1628 389.2508,-256.8 428.2966,-269.7614 464.9165,-301.0297 487.0231,-322.8177"/>
<polygon fill="#000000" stroke="#000000" points="484.6943,-325.4401 494.2174,-330.0834 489.6684,-320.5148 484.6943,-325.4401"/>
</g>
<!-- (*geeorm/clause.Clause).Set&#45;&gt;geeorm/clause._limit -->
<g id="edge5" class="edge">
<title>(*geeorm/clause.Clause).Set&#45;&gt;geeorm/clause._limit</title>
<path fill="none" stroke="#000000" stroke-dasharray="5,2" d="M231.6239,-338.1344C256.0409,-327.9616 294.6749,-311.8655 322.1683,-300.4109"/>
<polygon fill="#000000" stroke="#000000" points="323.8616,-303.4971 331.7465,-296.4204 321.1695,-297.0355 323.8616,-303.4971"/>
</g>
<!-- (*geeorm/clause.Clause).Set&#45;&gt;geeorm/clause._where -->
<g id="edge6" class="edge">
<title>(*geeorm/clause.Clause).Set&#45;&gt;geeorm/clause._where</title>
<path fill="none" stroke="#000000" stroke-dasharray="5,2" d="M235.6204,-347.8C258.4432,-347.8 291.2995,-347.8 316.7419,-347.8"/>
<polygon fill="#000000" stroke="#000000" points="316.7903,-351.3001 326.7903,-347.8 316.7903,-344.3001 316.7903,-351.3001"/>
</g>
<!-- (*geeorm/clause.Clause).Set&#45;&gt;geeorm/clause._orderBy -->
<g id="edge7" class="edge">
<title>(*geeorm/clause.Clause).Set&#45;&gt;geeorm/clause._orderBy</title>
<path fill="none" stroke="#000000" stroke-dasharray="5,2" d="M231.6239,-357.4656C254.8918,-367.1597 291.0702,-382.2327 318.2155,-393.5422"/>
<polygon fill="#000000" stroke="#000000" points="317.1901,-396.9066 327.7671,-397.5217 319.8822,-390.4449 317.1901,-396.9066"/>
</g>
<!-- (*geeorm/clause.Clause).Set&#45;&gt;geeorm/clause._update -->
<g id="edge8" class="edge">
<title>(*geeorm/clause.Clause).Set&#45;&gt;geeorm/clause._update</title>
<path fill="none" stroke="#000000" stroke-dasharray="5,2" d="M225.5063,-362.0337C251.0183,-383.2918 299.2574,-423.4874 329.067,-448.3265"/>
<polygon fill="#000000" stroke="#000000" points="327.0289,-451.184 336.9519,-454.8967 331.5099,-445.8063 327.0289,-451.184"/>
</g>
<!-- (*geeorm/clause.Clause).Set&#45;&gt;geeorm/clause._delete -->
<g id="edge9" class="edge">
<title>(*geeorm/clause.Clause).Set&#45;&gt;geeorm/clause._delete</title>
<path fill="none" stroke="#000000" stroke-dasharray="5,2" d="M219.0727,-364.8021C237.7838,-394.0702 278.5641,-455.2172 320.4243,-500.8 323.3193,-503.9524 326.5242,-507.1098 329.7794,-510.1297"/>
<polygon fill="#000000" stroke="#000000" points="327.5464,-512.8278 337.3441,-516.8598 332.1993,-507.5979 327.5464,-512.8278"/>
</g>
<!-- (*geeorm/clause.Clause).Set&#45;&gt;geeorm/clause._count -->
<g id="edge11" class="edge">
<title>(*geeorm/clause.Clause).Set&#45;&gt;geeorm/clause._count</title>
<path fill="none" stroke="#000000" stroke-dasharray="5,2" d="M215.0339,-365.4484C229.9257,-403.7812 268.8663,-496.4523 320.4243,-561.8 323.0754,-565.1601 326.1392,-568.4376 329.3238,-571.5177"/>
<polygon fill="#000000" stroke="#000000" points="327.0658,-574.1944 336.836,-578.2925 331.7539,-568.9961 327.0658,-574.1944"/>
</g>
<!-- (*geeorm/clause.Clause).Build -->
<g id="node14" class="node">
<title>(*geeorm/clause.Clause).Build</title>
<ellipse fill="#add8e6" stroke="#000000" stroke-width="1.5" cx="208.4243" cy="-286.8" rx="27" ry="18"/>
<text text-anchor="middle" x="208.4243" y="-282.6" font-family="Verdana" font-size="14.00" fill="#000000">Build</text>
</g>
<!-- (*geeorm/session.Session).Find -->
<g id="node15" class="node">
<title>(*geeorm/session.Session).Find</title>
<ellipse fill="#ffe4b5" stroke="#000000" stroke-width="1.5" cx="64.2122" cy="-327.8" rx="27" ry="18"/>
<text text-anchor="middle" x="64.2122" y="-323.6" font-family="Verdana" font-size="14.00" fill="#000000">Find</text>
</g>
<!-- (*geeorm/session.Session).Find&#45;&gt;(*geeorm/clause.Clause).Set -->
<g id="edge12" class="edge">
<title>(*geeorm/session.Session).Find&#45;&gt;(*geeorm/clause.Clause).Set</title>
<path fill="none" stroke="#8b4513" d="M90.6629,-331.4683C113.3895,-334.6201 146.3955,-339.1976 171.686,-342.705"/>
<polygon fill="#8b4513" stroke="#8b4513" points="171.2669,-346.1803 181.6529,-344.0872 172.2285,-339.2466 171.2669,-346.1803"/>
</g>
<!-- (*geeorm/session.Session).Find&#45;&gt;(*geeorm/clause.Clause).Build -->
<g id="edge13" class="edge">
<title>(*geeorm/session.Session).Find&#45;&gt;(*geeorm/clause.Clause).Build</title>
<path fill="none" stroke="#8b4513" d="M89.332,-320.6583C112.5568,-314.0554 147.3006,-304.1777 173.2755,-296.7929"/>
<polygon fill="#8b4513" stroke="#8b4513" points="174.4468,-300.0987 183.1085,-293.9974 172.5325,-293.3655 174.4468,-300.0987"/>
</g>
<!-- (*geeorm/session.Session).Count -->
<g id="node16" class="node">
<title>(*geeorm/session.Session).Count</title>
<ellipse fill="#ffe4b5" stroke="#000000" stroke-width="1.5" cx="64.2122" cy="-144.8" rx="27" ry="18"/>
<text text-anchor="middle" x="64.2122" y="-140.6" font-family="Verdana" font-size="14.00" fill="#000000">Count</text>
</g>
<!-- (*geeorm/session.Session).Count&#45;&gt;(*geeorm/clause.Clause).Set -->
<g id="edge14" class="edge">
<title>(*geeorm/session.Session).Count&#45;&gt;(*geeorm/clause.Clause).Set</title>
<path fill="none" stroke="#8b4513" d="M86.5663,-155.314C95.5701,-160.4513 105.452,-167.3615 112.4243,-175.8 155.7409,-228.2257 128.3542,-263.5963 169.4243,-317.8 172.568,-321.949 176.4249,-325.8226 180.4772,-329.3168"/>
<polygon fill="#8b4513" stroke="#8b4513" points="178.3546,-332.1003 188.375,-335.5415 182.6876,-326.6025 178.3546,-332.1003"/>
</g>
<!-- (*geeorm/session.Session).Count&#45;&gt;(*geeorm/clause.Clause).Build -->
<g id="edge15" class="edge">
<title>(*geeorm/session.Session).Count&#45;&gt;(*geeorm/clause.Clause).Build</title>
<path fill="none" stroke="#8b4513" d="M90.4149,-149.1997C104.7365,-152.8214 121.8605,-159.31 133.4243,-170.8 165.1591,-202.3323 140.2135,-230.9162 169.4243,-264.8 171.6069,-267.3318 174.1567,-269.6338 176.8886,-271.7117"/>
<polygon fill="#8b4513" stroke="#8b4513" points="175.1552,-274.7595 185.4461,-277.2791 178.9726,-268.8919 175.1552,-274.7595"/>
</g>
<!-- (*geeorm/session.Session).Delete -->
<g id="node17" class="node">
<title>(*geeorm/session.Session).Delete</title>
<ellipse fill="#ffe4b5" stroke="#000000" stroke-width="1.5" cx="64.2122" cy="-449.8" rx="27" ry="18"/>
<text text-anchor="middle" x="64.2122" y="-445.6" font-family="Verdana" font-size="14.00" fill="#000000">Delete</text>
</g>
<!-- (*geeorm/session.Session).Delete&#45;&gt;(*geeorm/clause.Clause).Set -->
<g id="edge17" class="edge">
<title>(*geeorm/session.Session).Delete&#45;&gt;(*geeorm/clause.Clause).Set</title>
<path fill="none" stroke="#8b4513" d="M89.4314,-442.7523C103.109,-438.2615 119.9268,-431.6176 133.4243,-422.8 154.8227,-408.821 175.0655,-387.9519 189.1149,-371.7742"/>
<polygon fill="#8b4513" stroke="#8b4513" points="192.0751,-373.6948 195.8707,-363.8032 186.735,-369.1689 192.0751,-373.6948"/>
</g>
<!-- (*geeorm/session.Session).Delete&#45;&gt;(*geeorm/clause.Clause).Build -->
<g id="edge18" class="edge">
<title>(*geeorm/session.Session).Delete&#45;&gt;(*geeorm/clause.Clause).Build</title>
<path fill="none" stroke="#8b4513" d="M86.5529,-439.0372C95.3458,-434.0465 105.0748,-427.5035 112.4243,-419.8 148.272,-382.2256 135.795,-357.3722 169.4243,-317.8 172.9057,-313.7034 176.9956,-309.7686 181.1933,-306.1586"/>
<polygon fill="#8b4513" stroke="#8b4513" points="183.6719,-308.6565 189.2668,-299.6594 179.2824,-303.2037 183.6719,-308.6565"/>
</g>
<!-- (*geeorm/session.Session).OrderBy -->
<g id="node18" class="node">
<title>(*geeorm/session.Session).OrderBy</title>
<ellipse fill="#ffe4b5" stroke="#000000" stroke-width="1.5" cx="64.2122" cy="-510.8" rx="32.4257" ry="18"/>
<text text-anchor="middle" x="64.2122" y="-506.6" font-family="Verdana" font-size="14.00" fill="#000000">OrderBy</text>
</g>
<!-- (*geeorm/session.Session).OrderBy&#45;&gt;(*geeorm/clause.Clause).Set -->
<g id="edge19" class="edge">
<title>(*geeorm/session.Session).OrderBy&#45;&gt;(*geeorm/clause.Clause).Set</title>
<path fill="none" stroke="#8b4513" d="M88.0745,-498.4514C96.2856,-493.5771 105.2185,-487.5278 112.4243,-480.8 146.8339,-448.6732 176.8349,-402.5779 193.7725,-373.9512"/>
<polygon fill="#8b4513" stroke="#8b4513" points="197.0008,-375.362 199.0032,-364.9581 190.9499,-371.8425 197.0008,-375.362"/>
</g>
<!-- (*geeorm/session.Session).Limit -->
<g id="node19" class="node">
<title>(*geeorm/session.Session).Limit</title>
<ellipse fill="#ffe4b5" stroke="#000000" stroke-width="1.5" cx="64.2122" cy="-571.8" rx="27" ry="18"/>
<text text-anchor="middle" x="64.2122" y="-567.6" font-family="Verdana" font-size="14.00" fill="#000000">Limit</text>
</g>
<!-- (*geeorm/session.Session).Limit&#45;&gt;(*geeorm/clause.Clause).Set -->
<g id="edge20" class="edge">
<title>(*geeorm/session.Session).Limit&#45;&gt;(*geeorm/clause.Clause).Set</title>
<path fill="none" stroke="#8b4513" d="M86.7486,-561.2192C95.5714,-556.2565 105.27,-549.6851 112.4243,-541.8 158.0696,-491.4924 187.1185,-415.5031 200.2504,-375.1836"/>
<polygon fill="#8b4513" stroke="#8b4513" points="203.6329,-376.0957 203.3184,-365.5056 196.9601,-373.9804 203.6329,-376.0957"/>
</g>
<!-- (*geeorm/session.Session).Insert -->
<g id="node20" class="node">
<title>(*geeorm/session.Session).Insert</title>
<ellipse fill="#ffe4b5" stroke="#000000" stroke-width="1.5" cx="64.2122" cy="-266.8" rx="27" ry="18"/>
<text text-anchor="middle" x="64.2122" y="-262.6" font-family="Verdana" font-size="14.00" fill="#000000">Insert</text>
</g>
<!-- (*geeorm/session.Session).Insert&#45;&gt;(*geeorm/clause.Clause).Set -->
<g id="edge21" class="edge">
<title>(*geeorm/session.Session).Insert&#45;&gt;(*geeorm/clause.Clause).Set</title>
<path fill="none" stroke="#8b4513" d="M84.8742,-278.4053C109.3647,-292.1609 150.3758,-315.1958 178.377,-330.9232"/>
<polygon fill="#8b4513" stroke="#8b4513" points="176.8987,-334.1072 187.3316,-335.9528 180.3267,-328.004 176.8987,-334.1072"/>
</g>
<!-- (*geeorm/session.Session).Insert&#45;&gt;(*geeorm/clause.Clause).Build -->
<g id="edge22" class="edge">
<title>(*geeorm/session.Session).Insert&#45;&gt;(*geeorm/clause.Clause).Build</title>
<path fill="none" stroke="#8b4513" d="M90.6629,-270.4683C113.3895,-273.6201 146.3955,-278.1976 171.686,-281.705"/>
<polygon fill="#8b4513" stroke="#8b4513" points="171.2669,-285.1803 181.6529,-283.0872 172.2285,-278.2466 171.2669,-285.1803"/>
</g>
<!-- (*geeorm/session.Session).Where -->
<g id="node21" class="node">
<title>(*geeorm/session.Session).Where</title>
<ellipse fill="#ffe4b5" stroke="#000000" stroke-width="1.5" cx="64.2122" cy="-388.8" rx="27" ry="18"/>
<text text-anchor="middle" x="64.2122" y="-384.6" font-family="Verdana" font-size="14.00" fill="#000000">Where</text>
</g>
<!-- (*geeorm/session.Session).Where&#45;&gt;(*geeorm/clause.Clause).Set -->
<g id="edge23" class="edge">
<title>(*geeorm/session.Session).Where&#45;&gt;(*geeorm/clause.Clause).Set</title>
<path fill="none" stroke="#8b4513" d="M89.332,-381.6583C112.5568,-375.0554 147.3006,-365.1777 173.2755,-357.7929"/>
<polygon fill="#8b4513" stroke="#8b4513" points="174.4468,-361.0987 183.1085,-354.9974 172.5325,-354.3655 174.4468,-361.0987"/>
</g>
<!-- (*geeorm/session.Session).Update -->
<g id="node22" class="node">
<title>(*geeorm/session.Session).Update</title>
<ellipse fill="#ffe4b5" stroke="#000000" stroke-width="1.5" cx="64.2122" cy="-205.8" rx="27.2547" ry="18"/>
<text text-anchor="middle" x="64.2122" y="-201.6" font-family="Verdana" font-size="14.00" fill="#000000">Update</text>
</g>
<!-- (*geeorm/session.Session).Update&#45;&gt;(*geeorm/clause.Clause).Set -->
<g id="edge24" class="edge">
<title>(*geeorm/session.Session).Update&#45;&gt;(*geeorm/clause.Clause).Set</title>
<path fill="none" stroke="#8b4513" d="M85.6609,-217.1548C94.5117,-222.4341 104.5242,-229.2232 112.4243,-236.8 144.1946,-267.2701 138.9656,-286.0188 169.4243,-317.8 173.0261,-321.5582 177.123,-325.227 181.2752,-328.6361"/>
<polygon fill="#8b4513" stroke="#8b4513" points="179.1747,-331.4366 189.2125,-334.8271 183.4799,-325.917 179.1747,-331.4366"/>
</g>
<!-- (*geeorm/session.Session).Update&#45;&gt;(*geeorm/clause.Clause).Build -->
<g id="edge25" class="edge">
<title>(*geeorm/session.Session).Update&#45;&gt;(*geeorm/clause.Clause).Build</title>
<path fill="none" stroke="#8b4513" d="M90.0631,-211.8545C103.6114,-215.7285 120.1091,-221.5896 133.4243,-229.8 152.4189,-241.5124 151.5581,-251.4294 169.4243,-264.8 172.1006,-266.8029 174.9781,-268.7536 177.9138,-270.6132"/>
<polygon fill="#8b4513" stroke="#8b4513" points="176.37,-273.7675 186.7522,-275.8796 179.9532,-267.7541 176.37,-273.7675"/>
</g>
</g>
</svg>
