<?xml version="1.0" encoding="UTF-8" standalone="no"?>
<!DOCTYPE svg PUBLIC "-//W3C//DTD SVG 1.1//EN"
 "http://www.w3.org/Graphics/SVG/1.1/DTD/svg11.dtd">
<!-- Generated by graphviz version 2.40.1 (20161225.0304)
 -->
<!-- Title: gocallvis Pages: 1 -->
<svg width="486pt" height="435pt"
 viewBox="0.00 0.00 485.74 434.80" xmlns="http://www.w3.org/2000/svg" xmlns:xlink="http://www.w3.org/1999/xlink">
<g id="graph0" class="graph" transform="scale(1 1) rotate(0) translate(0 434.8)">
<title>gocallvis</title>
<polygon fill="#d3d3d3" stroke="transparent" points="0,0 0,-434.8 485.7449,-434.8 485.7449,0 0,0"/>
<text text-anchor="middle" x="48.8373" y="-8.2" font-family="Arial" font-size="14.00" fill="#000000">geeorm/main</text>
<g id="clust1" class="cluster">
<title>cluster_focus</title>
<polygon fill="#e6ecfa" stroke="#000000" stroke-width=".5" points="8,-32.8 8,-426.8 477.7449,-426.8 477.7449,-32.8 8,-32.8"/>
<text text-anchor="middle" x="242.8725" y="-406.6" font-family="Arial" font-size="18.00" fill="#000000">dialect</text>
</g>
<g id="clust5" class="cluster">
<title>cluster_geeorm/session</title>
<g id="a_clust5"><a xlink:href="/?f=geeorm/session" xlink:title="package: geeorm/session">
<polygon fill="#ffffe0" stroke="#000000" stroke-width=".8" points="16,-267.8 16,-388.8 117.6923,-388.8 117.6923,-267.8 16,-267.8"/>
<text text-anchor="middle" x="66.8462" y="-370.4" font-family="Tahoma bold" font-size="16.00" fill="#000000">session</text>
</a>
</g>
</g>
<g id="clust6" class="cluster">
<title>cluster_*geeorm/session.Session</title>
<g id="a_clust6"><a xlink:href="/?f=geeorm/session" xlink:title="type: *geeorm/session.Session">
<path fill="#eed8ae" stroke="#000000" stroke-width=".5" d="M36,-275.8C36,-275.8 97.6923,-275.8 97.6923,-275.8 103.6923,-275.8 109.6923,-281.8 109.6923,-287.8 109.6923,-287.8 109.6923,-341.8 109.6923,-341.8 109.6923,-347.8 103.6923,-353.8 97.6923,-353.8 97.6923,-353.8 36,-353.8 36,-353.8 30,-353.8 24,-347.8 24,-341.8 24,-341.8 24,-287.8 24,-287.8 24,-281.8 30,-275.8 36,-275.8"/>
<text text-anchor="middle" x="66.8462" y="-284.3" font-family="Tahoma bold" font-size="15.00" fill="#222222">(*Session)</text>
</a>
</g>
</g>
<g id="clust4" class="cluster">
<title>cluster_geeorm/schema</title>
<g id="a_clust4"><a xlink:href="/?f=geeorm/schema" xlink:title="package: geeorm/schema">
<polygon fill="#ffffe0" stroke="#000000" stroke-width=".8" points="31.8462,-180.8 31.8462,-259.8 101.8462,-259.8 101.8462,-180.8 31.8462,-180.8"/>
<text text-anchor="middle" x="66.8462" y="-241.4" font-family="Tahoma bold" font-size="16.00" fill="#000000">schema</text>
</a>
</g>
</g>
<g id="clust3" class="cluster">
<title>cluster_geeorm</title>
<g id="a_clust3"><a xlink:href="/?f=geeorm" xlink:title="package: geeorm">
<polygon fill="#ffffe0" stroke="#000000" stroke-width=".8" points="16.9631,-93.8 16.9631,-172.8 116.7292,-172.8 116.7292,-93.8 16.9631,-93.8"/>
<text text-anchor="middle" x="66.8462" y="-154.4" font-family="Tahoma bold" font-size="16.00" fill="#000000">geeorm</text>
</a>
</g>
</g>
<g id="clust2" class="cluster">
<title>cluster_*geeorm/dialect.sqlite3</title>
<g id="a_clust2"><a xlink:title="type: *geeorm/dialect.sqlite3">
<path fill="#b0c4de" stroke="#000000" stroke-width=".5" d="M185.7292,-199.8C185.7292,-199.8 285.2474,-199.8 285.2474,-199.8 291.2474,-199.8 297.2474,-205.8 297.2474,-211.8 297.2474,-211.8 297.2474,-326.8 297.2474,-326.8 297.2474,-332.8 291.2474,-338.8 285.2474,-338.8 285.2474,-338.8 185.7292,-338.8 185.7292,-338.8 179.7292,-338.8 173.7292,-332.8 173.7292,-326.8 173.7292,-326.8 173.7292,-211.8 173.7292,-211.8 173.7292,-205.8 179.7292,-199.8 185.7292,-199.8"/>
<text text-anchor="middle" x="235.4883" y="-208.3" font-family="Arial" font-size="15.00" fill="#222222">(*sqlite3)</text>
</a>
</g>
</g>
<!-- geeorm/dialect.init#1 -->
<g id="node1" class="node">
<title>geeorm/dialect.init#1</title>
<ellipse fill="#add8e6" stroke="#000000" stroke-width=".5" cx="235.4883" cy="-58.8" rx="27" ry="18"/>
<text text-anchor="middle" x="235.4883" y="-54.6" font-family="Verdana" font-size="14.00" fill="#000000">init#1</text>
</g>
<!-- geeorm/dialect.RegisterDialect -->
<g id="node2" class="node">
<title>geeorm/dialect.RegisterDialect</title>
<ellipse fill="#add8e6" stroke="#000000" stroke-width="1.5" cx="415.9961" cy="-58.8" rx="53.9987" ry="18"/>
<text text-anchor="middle" x="415.9961" y="-54.6" font-family="Verdana" font-size="14.00" fill="#000000">RegisterDialect</text>
</g>
<!-- geeorm/dialect.init#1&#45;&gt;geeorm/dialect.RegisterDialect -->
<g id="edge1" class="edge">
<title>geeorm/dialect.init#1&#45;&gt;geeorm/dialect.RegisterDialect</title>
<path fill="none" stroke="#000000" d="M262.5122,-58.8C286.1048,-58.8 321.2818,-58.8 352.0091,-58.8"/>
<polygon fill="#000000" stroke="#000000" points="352.236,-62.3001 362.236,-58.8 352.2359,-55.3001 352.236,-62.3001"/>
</g>
<!-- geeorm/dialect.init -->
<g id="node3" class="node">
<title>geeorm/dialect.init</title>
<ellipse fill="#add8e6" stroke="#000000" stroke-width=".5" cx="66.8462" cy="-58.8" rx="27" ry="18"/>
<text text-anchor="middle" x="66.8462" y="-54.6" font-family="Verdana" font-size="14.00" fill="#000000">init</text>
</g>
<!-- geeorm/dialect.init&#45;&gt;geeorm/dialect.init#1 -->
<g id="edge2" class="edge">
<title>geeorm/dialect.init&#45;&gt;geeorm/dialect.init#1</title>
<path fill="none" stroke="#000000" d="M93.9414,-58.8C122.2157,-58.8 166.7436,-58.8 198.2986,-58.8"/>
<polygon fill="#000000" stroke="#000000" points="198.4603,-62.3001 208.4603,-58.8 198.4602,-55.3001 198.4603,-62.3001"/>
</g>
<!-- geeorm/dialect.GetDialect -->
<g id="node4" class="node">
<title>geeorm/dialect.GetDialect</title>
<ellipse fill="#add8e6" stroke="#000000" stroke-width="1.5" cx="235.4883" cy="-119.8" rx="38.6033" ry="18"/>
<text text-anchor="middle" x="235.4883" y="-115.6" font-family="Verdana" font-size="14.00" fill="#000000">GetDialect</text>
</g>
<!-- (*geeorm/dialect.sqlite3).DataTypeOf -->
<g id="node5" class="node">
<title>(*geeorm/dialect.sqlite3).DataTypeOf</title>
<ellipse fill="#add8e6" stroke="#000000" stroke-width="1.5" cx="235.4883" cy="-251.8" rx="44.1479" ry="18"/>
<text text-anchor="middle" x="235.4883" y="-247.6" font-family="Verdana" font-size="14.00" fill="#000000">DataTypeOf</text>
</g>
<!-- (*geeorm/dialect.sqlite3).TableExistSQL -->
<g id="node6" class="node">
<title>(*geeorm/dialect.sqlite3).TableExistSQL</title>
<ellipse fill="#add8e6" stroke="#000000" stroke-width="1.5" cx="235.4883" cy="-312.8" rx="53.5192" ry="18"/>
<text text-anchor="middle" x="235.4883" y="-308.6" font-family="Verdana" font-size="14.00" fill="#000000">TableExistSQL</text>
</g>
<!-- geeorm.NewEngine -->
<g id="node7" class="node">
<title>geeorm.NewEngine</title>
<ellipse fill="#ffe4b5" stroke="#000000" stroke-width="1.5" cx="66.8462" cy="-119.8" rx="41.7665" ry="18"/>
<text text-anchor="middle" x="66.8462" y="-115.6" font-family="Verdana" font-size="14.00" fill="#000000">NewEngine</text>
</g>
<!-- geeorm.NewEngine&#45;&gt;geeorm/dialect.GetDialect -->
<g id="edge3" class="edge">
<title>geeorm.NewEngine&#45;&gt;geeorm/dialect.GetDialect</title>
<path fill="none" stroke="#8b4513" d="M108.9667,-119.8C132.442,-119.8 161.797,-119.8 186.3202,-119.8"/>
<polygon fill="#8b4513" stroke="#8b4513" points="186.503,-123.3001 196.503,-119.8 186.503,-116.3001 186.503,-123.3001"/>
</g>
<!-- geeorm/schema.Parse -->
<g id="node8" class="node">
<title>geeorm/schema.Parse</title>
<ellipse fill="#ffe4b5" stroke="#000000" stroke-width="1.5" cx="66.8462" cy="-206.8" rx="27" ry="18"/>
<text text-anchor="middle" x="66.8462" y="-202.6" font-family="Verdana" font-size="14.00" fill="#000000">Parse</text>
</g>
<!-- geeorm/schema.Parse&#45;&gt;(*geeorm/dialect.sqlite3).DataTypeOf -->
<g id="edge4" class="edge">
<title>geeorm/schema.Parse&#45;&gt;(*geeorm/dialect.sqlite3).DataTypeOf</title>
<path fill="none" stroke="#8b4513" stroke-dasharray="5,2" d="M92.0936,-213.537C117.5477,-220.3291 157.435,-230.9725 188.6858,-239.3113"/>
<polygon fill="#8b4513" stroke="#8b4513" points="187.9351,-242.7334 198.4994,-241.93 189.7399,-235.9701 187.9351,-242.7334"/>
</g>
<!-- (*geeorm/session.Session).HasTable -->
<g id="node9" class="node">
<title>(*geeorm/session.Session).HasTable</title>
<ellipse fill="#ffe4b5" stroke="#000000" stroke-width="1.5" cx="66.8462" cy="-327.8" rx="34.693" ry="18"/>
<text text-anchor="middle" x="66.8462" y="-323.6" font-family="Verdana" font-size="14.00" fill="#000000">HasTable</text>
</g>
<!-- (*geeorm/session.Session).HasTable&#45;&gt;(*geeorm/dialect.sqlite3).TableExistSQL -->
<g id="edge5" class="edge">
<title>(*geeorm/session.Session).HasTable&#45;&gt;(*geeorm/dialect.sqlite3).TableExistSQL</title>
<path fill="none" stroke="#8b4513" stroke-dasharray="5,2" d="M101.3804,-324.7283C122.0384,-322.8909 148.9079,-320.501 173.1658,-318.3433"/>
<polygon fill="#8b4513" stroke="#8b4513" points="173.7259,-321.8074 183.3765,-317.4351 173.1057,-314.8349 173.7259,-321.8074"/>
</g>
</g>
</svg>
