<?xml version="1.0" encoding="UTF-8" standalone="no"?>
<!DOCTYPE svg PUBLIC "-//W3C//DTD SVG 1.1//EN"
 "http://www.w3.org/Graphics/SVG/1.1/DTD/svg11.dtd">
<!-- Generated by graphviz version 2.40.1 (20161225.0304)
 -->
<!-- Title: gocallvis Pages: 1 -->
<svg width="767pt" height="983pt"
 viewBox="0.00 0.00 766.82 982.80" xmlns="http://www.w3.org/2000/svg" xmlns:xlink="http://www.w3.org/1999/xlink">
<g id="graph0" class="graph" transform="scale(1 1) rotate(0) translate(0 982.8)">
<title>gocallvis</title>
<polygon fill="#d3d3d3" stroke="transparent" points="0,0 0,-982.8 766.8214,-982.8 766.8214,0 0,0"/>
<text text-anchor="middle" x="48.8373" y="-8.2" font-family="Arial" font-size="14.00" fill="#000000">geeorm/main</text>
<g id="clust1" class="cluster">
<title>cluster_focus</title>
<polygon fill="#e6ecfa" stroke="#000000" stroke-width=".5" points="8,-32.8 8,-974.8 758.8214,-974.8 758.8214,-32.8 8,-32.8"/>
<text text-anchor="middle" x="383.4107" y="-954.6" font-family="Arial" font-size="18.00" fill="#000000">geeorm</text>
</g>
<g id="clust7" class="cluster">
<title>cluster_geeorm/session</title>
<g id="a_clust7"><a xlink:href="/?f=geeorm/session" xlink:title="package: geeorm/session">
<polygon fill="#ffffe0" stroke="#000000" stroke-width=".8" points="632.4339,-213.8 632.4339,-936.8 750.8214,-936.8 750.8214,-213.8 632.4339,-213.8"/>
<text text-anchor="middle" x="691.6277" y="-918.4" font-family="Tahoma bold" font-size="16.00" fill="#000000">session</text>
</a>
</g>
</g>
<g id="clust8" class="cluster">
<title>cluster_*geeorm/session.Session</title>
<g id="a_clust8"><a xlink:href="/?f=geeorm/session" xlink:title="type: *geeorm/session.Session">
<path fill="#eed8ae" stroke="#000000" stroke-width=".5" d="M652.4339,-221.8C652.4339,-221.8 730.8214,-221.8 730.8214,-221.8 736.8214,-221.8 742.8214,-227.8 742.8214,-233.8 742.8214,-233.8 742.8214,-836.8 742.8214,-836.8 742.8214,-842.8 736.8214,-848.8 730.8214,-848.8 730.8214,-848.8 652.4339,-848.8 652.4339,-848.8 646.4339,-848.8 640.4339,-842.8 640.4339,-836.8 640.4339,-836.8 640.4339,-233.8 640.4339,-233.8 640.4339,-227.8 646.4339,-221.8 652.4339,-221.8"/>
<text text-anchor="middle" x="691.6277" y="-230.3" font-family="Tahoma bold" font-size="15.00" fill="#222222">(*Session)</text>
</a>
</g>
</g>
<g id="clust5" class="cluster">
<title>cluster_geeorm/schema</title>
<g id="a_clust5"><a xlink:href="/?f=geeorm/schema" xlink:title="package: geeorm/schema">
<polygon fill="#ffffe0" stroke="#000000" stroke-width=".8" points="643.4092,-84.8 643.4092,-205.8 739.8461,-205.8 739.8461,-84.8 643.4092,-84.8"/>
<text text-anchor="middle" x="691.6277" y="-187.4" font-family="Tahoma bold" font-size="16.00" fill="#000000">schema</text>
</a>
</g>
</g>
<g id="clust6" class="cluster">
<title>cluster_*geeorm/schema.Schema</title>
<g id="a_clust6"><a xlink:href="/?f=geeorm/schema" xlink:title="type: *geeorm/schema.Schema">
<path fill="#eed8ae" stroke="#000000" stroke-width=".5" d="M663.4092,-92.8C663.4092,-92.8 719.8461,-92.8 719.8461,-92.8 725.8461,-92.8 731.8461,-98.8 731.8461,-104.8 731.8461,-104.8 731.8461,-158.8 731.8461,-158.8 731.8461,-164.8 725.8461,-170.8 719.8461,-170.8 719.8461,-170.8 663.4092,-170.8 663.4092,-170.8 657.4092,-170.8 651.4092,-164.8 651.4092,-158.8 651.4092,-158.8 651.4092,-104.8 651.4092,-104.8 651.4092,-98.8 657.4092,-92.8 663.4092,-92.8"/>
<text text-anchor="middle" x="691.6277" y="-101.3" font-family="Tahoma bold" font-size="15.00" fill="#222222">(*Schema)</text>
</a>
</g>
</g>
<g id="clust4" class="cluster">
<title>cluster_geeorm/main</title>
<g id="a_clust4"><a xlink:href="/?f=geeorm/main" xlink:title="package: geeorm/main">
<polygon fill="#ffffe0" stroke="#000000" stroke-width=".8" points="16,-399.8 16,-539.8 97.3123,-539.8 97.3123,-399.8 16,-399.8"/>
<text text-anchor="middle" x="56.6562" y="-521.4" font-family="Tahoma bold" font-size="16.00" fill="#000000">main</text>
</a>
</g>
</g>
<g id="clust3" class="cluster">
<title>cluster_geeorm/dialect</title>
<g id="a_clust3"><a xlink:href="/?f=geeorm/dialect" xlink:title="package: geeorm/dialect">
<polygon fill="#ffffe0" stroke="#000000" stroke-width=".8" points="314.1589,-317.8 314.1589,-396.8 407.7611,-396.8 407.7611,-317.8 314.1589,-317.8"/>
<text text-anchor="middle" x="360.96" y="-378.4" font-family="Tahoma bold" font-size="16.00" fill="#000000">dialect</text>
</a>
</g>
</g>
<g id="clust2" class="cluster">
<title>cluster_*geeorm.Engine</title>
<g id="a_clust2"><a xlink:title="type: *geeorm.Engine">
<path fill="#b0c4de" stroke="#000000" stroke-width=".5" d="M178.6196,-404.8C178.6196,-404.8 571.4339,-404.8 571.4339,-404.8 577.4339,-404.8 583.4339,-410.8 583.4339,-416.8 583.4339,-416.8 583.4339,-592.8 583.4339,-592.8 583.4339,-598.8 577.4339,-604.8 571.4339,-604.8 571.4339,-604.8 178.6196,-604.8 178.6196,-604.8 172.6196,-604.8 166.6196,-598.8 166.6196,-592.8 166.6196,-592.8 166.6196,-416.8 166.6196,-416.8 166.6196,-410.8 172.6196,-404.8 178.6196,-404.8"/>
<text text-anchor="middle" x="375.0268" y="-413.3" font-family="Arial" font-size="15.00" fill="#222222">(*Engine)</text>
</a>
</g>
</g>
<!-- geeorm.difference -->
<g id="node1" class="node">
<title>geeorm.difference</title>
<ellipse fill="#add8e6" stroke="#000000" stroke-width=".5" cx="691.6277" cy="-58.8" rx="36.6893" ry="18"/>
<text text-anchor="middle" x="691.6277" y="-54.6" font-family="Verdana" font-size="14.00" fill="#000000">difference</text>
</g>
<!-- geeorm.NewEngine -->
<g id="node2" class="node">
<title>geeorm.NewEngine</title>
<ellipse fill="#add8e6" stroke="#000000" stroke-width="1.5" cx="204.1954" cy="-369.8" rx="41.7665" ry="18"/>
<text text-anchor="middle" x="204.1954" y="-365.6" font-family="Verdana" font-size="14.00" fill="#000000">NewEngine</text>
</g>
<!-- geeorm/dialect.GetDialect -->
<g id="node9" class="node">
<title>geeorm/dialect.GetDialect</title>
<ellipse fill="#ffe4b5" stroke="#000000" stroke-width="1.5" cx="360.96" cy="-343.8" rx="38.6033" ry="18"/>
<text text-anchor="middle" x="360.96" y="-339.6" font-family="Verdana" font-size="14.00" fill="#000000">GetDialect</text>
</g>
<!-- geeorm.NewEngine&#45;&gt;geeorm/dialect.GetDialect -->
<g id="edge18" class="edge">
<title>geeorm.NewEngine&#45;&gt;geeorm/dialect.GetDialect</title>
<path fill="none" stroke="#8b4513" d="M243.3494,-363.3062C264.8192,-359.7453 291.5796,-355.307 314.1478,-351.564"/>
<polygon fill="#8b4513" stroke="#8b4513" points="314.8954,-354.9879 324.1879,-349.8988 313.75,-348.0822 314.8954,-354.9879"/>
</g>
<!-- (*geeorm.Engine).NewSession -->
<g id="node3" class="node">
<title>(*geeorm.Engine).NewSession</title>
<ellipse fill="#add8e6" stroke="#000000" stroke-width="1.5" cx="525.6377" cy="-578.8" rx="43.7935" ry="18"/>
<text text-anchor="middle" x="525.6377" y="-574.6" font-family="Verdana" font-size="14.00" fill="#000000">NewSession</text>
</g>
<!-- geeorm/session.New -->
<g id="node13" class="node">
<title>geeorm/session.New</title>
<ellipse fill="#ffe4b5" stroke="#000000" stroke-width="1.5" cx="691.6277" cy="-883.8" rx="27" ry="18"/>
<text text-anchor="middle" x="691.6277" y="-879.6" font-family="Verdana" font-size="14.00" fill="#000000">New</text>
</g>
<!-- (*geeorm.Engine).NewSession&#45;&gt;geeorm/session.New -->
<g id="edge1" class="edge">
<title>(*geeorm.Engine).NewSession&#45;&gt;geeorm/session.New</title>
<path fill="none" stroke="#8b4513" d="M528.0285,-596.9965C535.2117,-644.9778 560.7198,-776.6099 632.4339,-854.8 639.2656,-862.2486 648.429,-868.0094 657.5021,-872.3604"/>
<polygon fill="#8b4513" stroke="#8b4513" points="656.2555,-875.6346 666.8229,-876.396 659.0367,-869.2109 656.2555,-875.6346"/>
</g>
<!-- (*geeorm.Engine).Transaction -->
<g id="node4" class="node">
<title>(*geeorm.Engine).Transaction</title>
<ellipse fill="#add8e6" stroke="#000000" stroke-width="1.5" cx="360.96" cy="-522.8" rx="41.7634" ry="18"/>
<text text-anchor="middle" x="360.96" y="-518.6" font-family="Verdana" font-size="14.00" fill="#000000">Transaction</text>
</g>
<!-- (*geeorm.Engine).Transaction&#45;&gt;(*geeorm.Engine).NewSession -->
<g id="edge2" class="edge">
<title>(*geeorm.Engine).Transaction&#45;&gt;(*geeorm.Engine).NewSession</title>
<path fill="none" stroke="#000000" d="M393.8892,-533.9978C419.2187,-542.6113 454.4473,-554.5911 482.1035,-563.9958"/>
<polygon fill="#000000" stroke="#000000" points="481.3233,-567.4273 491.9177,-567.3332 483.577,-560.8 481.3233,-567.4273"/>
</g>
<!-- (*geeorm.Engine).Transaction$1 -->
<g id="node5" class="node">
<title>(*geeorm.Engine).Transaction$1</title>
<ellipse fill="#add8e6" stroke="#000000" stroke-dasharray="1,5" cx="525.6377" cy="-456.8" rx="49.5932" ry="18"/>
<text text-anchor="middle" x="525.6377" y="-452.6" font-family="Verdana" font-size="14.00" fill="#000000">Transaction$1</text>
</g>
<!-- (*geeorm.Engine).Transaction&#45;&gt;(*geeorm.Engine).Transaction$1 -->
<g id="edge6" class="edge">
<title>(*geeorm.Engine).Transaction&#45;&gt;(*geeorm.Engine).Transaction$1</title>
<path fill="none" stroke="#000000" d="M391.9346,-510.3859C413.0519,-501.9225 441.674,-490.4512 467.0182,-480.2937"/>
<polygon fill="#000000" stroke="#000000" points="484.2752,-477.148 492.2554,-470.1791 481.6711,-470.6505 484.2752,-477.148"/>
<polyline fill="none" stroke="#000000" points="482.9731,-473.8993 478.332,-475.7594 "/>
<polygon fill="none" stroke="#000000" points="467.1933,-480.2236 471.2746,-474.2786 478.332,-475.7594 474.2507,-481.7044 467.1933,-480.2236"/>
</g>
<!-- (*geeorm.Engine).Migrate$1 -->
<g id="node6" class="node">
<title>(*geeorm.Engine).Migrate$1</title>
<ellipse fill="#add8e6" stroke="#000000" stroke-dasharray="1,5" cx="525.6377" cy="-517.8" rx="37.4809" ry="18"/>
<text text-anchor="middle" x="525.6377" y="-513.6" font-family="Verdana" font-size="14.00" fill="#000000">Migrate$1</text>
</g>
<!-- (*geeorm.Engine).Transaction&#45;&gt;(*geeorm.Engine).Migrate$1 -->
<g id="edge16" class="edge">
<title>(*geeorm.Engine).Transaction&#45;&gt;(*geeorm.Engine).Migrate$1</title>
<path fill="none" stroke="#000000" stroke-dasharray="5,2" d="M402.9412,-521.5254C425.7687,-520.8323 454.0943,-519.9722 477.7762,-519.2532"/>
<polygon fill="#000000" stroke="#000000" points="478.0626,-522.7462 487.9517,-518.9442 477.8501,-515.7494 478.0626,-522.7462"/>
</g>
<!-- (*geeorm/session.Session).Begin -->
<g id="node14" class="node">
<title>(*geeorm/session.Session).Begin</title>
<ellipse fill="#ffe4b5" stroke="#000000" stroke-width="1.5" cx="691.6277" cy="-822.8" rx="27" ry="18"/>
<text text-anchor="middle" x="691.6277" y="-818.6" font-family="Verdana" font-size="14.00" fill="#000000">Begin</text>
</g>
<!-- (*geeorm.Engine).Transaction&#45;&gt;(*geeorm/session.Session).Begin -->
<g id="edge3" class="edge">
<title>(*geeorm.Engine).Transaction&#45;&gt;(*geeorm/session.Session).Begin</title>
<path fill="none" stroke="#8b4513" d="M374.7335,-539.8294C412.248,-585.4105 520.9178,-712.1938 632.4339,-792.8 640.6806,-798.7609 650.2827,-804.1796 659.3233,-808.7206"/>
<polygon fill="#8b4513" stroke="#8b4513" points="657.9327,-811.9356 668.461,-813.1211 660.97,-805.6288 657.9327,-811.9356"/>
</g>
<!-- (*geeorm/session.Session).Rollback -->
<g id="node15" class="node">
<title>(*geeorm/session.Session).Rollback</title>
<ellipse fill="#ffe4b5" stroke="#000000" stroke-width="1.5" cx="691.6277" cy="-334.8" rx="33.1975" ry="18"/>
<text text-anchor="middle" x="691.6277" y="-330.6" font-family="Verdana" font-size="14.00" fill="#000000">Rollback</text>
</g>
<!-- (*geeorm.Engine).Transaction$1&#45;&gt;(*geeorm/session.Session).Rollback -->
<g id="edge4" class="edge">
<title>(*geeorm.Engine).Transaction$1&#45;&gt;(*geeorm/session.Session).Rollback</title>
<path fill="none" stroke="#8b4513" d="M543.1633,-439.7077C563.5475,-420.3575 598.7239,-388.5699 632.4339,-365.8 640.1169,-360.6104 648.7721,-355.6397 657.0436,-351.257"/>
<polygon fill="#8b4513" stroke="#8b4513" points="658.8528,-354.2624 666.1471,-346.5784 655.653,-348.0365 658.8528,-354.2624"/>
</g>
<!-- (*geeorm/session.Session).Commit -->
<g id="node16" class="node">
<title>(*geeorm/session.Session).Commit</title>
<ellipse fill="#ffe4b5" stroke="#000000" stroke-width="1.5" cx="691.6277" cy="-273.8" rx="30.4419" ry="18"/>
<text text-anchor="middle" x="691.6277" y="-269.6" font-family="Verdana" font-size="14.00" fill="#000000">Commit</text>
</g>
<!-- (*geeorm.Engine).Transaction$1&#45;&gt;(*geeorm/session.Session).Commit -->
<g id="edge5" class="edge">
<title>(*geeorm.Engine).Transaction$1&#45;&gt;(*geeorm/session.Session).Commit</title>
<path fill="none" stroke="#8b4513" d="M534.5947,-438.7898C550.6297,-408.0231 586.8652,-344.7972 632.4339,-304.8 639.669,-298.4495 648.4334,-292.9588 656.9754,-288.4376"/>
<polygon fill="#8b4513" stroke="#8b4513" points="658.6757,-291.5011 666.0743,-283.9174 655.5613,-285.2321 658.6757,-291.5011"/>
</g>
<!-- (*geeorm.Engine).Migrate$1&#45;&gt;geeorm.difference -->
<g id="edge13" class="edge">
<title>(*geeorm.Engine).Migrate$1&#45;&gt;geeorm.difference</title>
<path fill="none" stroke="#000000" d="M557.2895,-508.0237C567.1656,-503.4307 577.1161,-496.9013 583.4339,-487.8 685.8199,-340.3058 527.3406,-232.3776 632.4339,-86.8 636.9172,-80.5897 643.1407,-75.7089 649.8779,-71.8879"/>
<polygon fill="#000000" stroke="#000000" points="651.8139,-74.8378 659.2682,-67.309 648.7458,-68.546 651.8139,-74.8378"/>
</g>
<!-- (*geeorm/schema.Schema).GetField -->
<g id="node12" class="node">
<title>(*geeorm/schema.Schema).GetField</title>
<ellipse fill="#ffe4b5" stroke="#000000" stroke-width="1.5" cx="691.6277" cy="-144.8" rx="32.4385" ry="18"/>
<text text-anchor="middle" x="691.6277" y="-140.6" font-family="Verdana" font-size="14.00" fill="#000000">GetField</text>
</g>
<!-- (*geeorm.Engine).Migrate$1&#45;&gt;(*geeorm/schema.Schema).GetField -->
<g id="edge14" class="edge">
<title>(*geeorm.Engine).Migrate$1&#45;&gt;(*geeorm/schema.Schema).GetField</title>
<path fill="none" stroke="#8b4513" d="M556.5039,-507.4319C566.317,-502.7914 576.4286,-496.3834 583.4339,-487.8 661.1014,-392.6362 583.9177,-328.6476 632.4339,-215.8 640.329,-197.4362 654.554,-180.1346 667.0805,-167.2087"/>
<polygon fill="#8b4513" stroke="#8b4513" points="669.5768,-169.6623 674.1989,-160.1288 664.6405,-164.6991 669.5768,-169.6623"/>
</g>
<!-- (*geeorm/session.Session).Model -->
<g id="node17" class="node">
<title>(*geeorm/session.Session).Model</title>
<ellipse fill="#ffe4b5" stroke="#000000" stroke-width="1.5" cx="691.6277" cy="-578.8" rx="27" ry="18"/>
<text text-anchor="middle" x="691.6277" y="-574.6" font-family="Verdana" font-size="14.00" fill="#000000">Model</text>
</g>
<!-- (*geeorm.Engine).Migrate$1&#45;&gt;(*geeorm/session.Session).Model -->
<g id="edge7" class="edge">
<title>(*geeorm.Engine).Migrate$1&#45;&gt;(*geeorm/session.Session).Model</title>
<path fill="none" stroke="#8b4513" d="M555.6972,-528.8466C584.6554,-539.4885 628.37,-555.5533 658.3609,-566.5747"/>
<polygon fill="#8b4513" stroke="#8b4513" points="657.371,-569.9397 667.9645,-570.104 659.7856,-563.3694 657.371,-569.9397"/>
</g>
<!-- (*geeorm/session.Session).HasTable -->
<g id="node18" class="node">
<title>(*geeorm/session.Session).HasTable</title>
<ellipse fill="#ffe4b5" stroke="#000000" stroke-width="1.5" cx="691.6277" cy="-639.8" rx="34.693" ry="18"/>
<text text-anchor="middle" x="691.6277" y="-635.6" font-family="Verdana" font-size="14.00" fill="#000000">HasTable</text>
</g>
<!-- (*geeorm.Engine).Migrate$1&#45;&gt;(*geeorm/session.Session).HasTable -->
<g id="edge8" class="edge">
<title>(*geeorm.Engine).Migrate$1&#45;&gt;(*geeorm/session.Session).HasTable</title>
<path fill="none" stroke="#8b4513" d="M553.5209,-529.9009C563.5103,-534.95 574.5002,-541.3787 583.4339,-548.8 610.1831,-571.0208 605.4284,-587.8914 632.4339,-609.8 639.1862,-615.2779 647.1017,-620.1332 654.9077,-624.257"/>
<polygon fill="#8b4513" stroke="#8b4513" points="653.4329,-627.4325 663.9448,-628.7554 656.5522,-621.1659 653.4329,-627.4325"/>
</g>
<!-- (*geeorm/session.Session).RefTable -->
<g id="node19" class="node">
<title>(*geeorm/session.Session).RefTable</title>
<ellipse fill="#ffe4b5" stroke="#000000" stroke-width="1.5" cx="691.6277" cy="-700.8" rx="33.9353" ry="18"/>
<text text-anchor="middle" x="691.6277" y="-696.6" font-family="Verdana" font-size="14.00" fill="#000000">RefTable</text>
</g>
<!-- (*geeorm.Engine).Migrate$1&#45;&gt;(*geeorm/session.Session).RefTable -->
<g id="edge9" class="edge">
<title>(*geeorm.Engine).Migrate$1&#45;&gt;(*geeorm/session.Session).RefTable</title>
<path fill="none" stroke="#8b4513" d="M555.406,-528.8543C565.3587,-533.7308 575.839,-540.3167 583.4339,-548.8 622.4092,-592.3344 592.9554,-627.7213 632.4339,-670.8 638.3084,-677.2102 645.8637,-682.4482 653.5981,-686.648"/>
<polygon fill="#8b4513" stroke="#8b4513" points="652.1519,-689.8371 662.6701,-691.1093 655.241,-683.5555 652.1519,-689.8371"/>
</g>
<!-- (*geeorm/session.Session).CreateTable -->
<g id="node20" class="node">
<title>(*geeorm/session.Session).CreateTable</title>
<ellipse fill="#ffe4b5" stroke="#000000" stroke-width="1.5" cx="691.6277" cy="-761.8" rx="43.3884" ry="18"/>
<text text-anchor="middle" x="691.6277" y="-757.6" font-family="Verdana" font-size="14.00" fill="#000000">CreateTable</text>
</g>
<!-- (*geeorm.Engine).Migrate$1&#45;&gt;(*geeorm/session.Session).CreateTable -->
<g id="edge10" class="edge">
<title>(*geeorm.Engine).Migrate$1&#45;&gt;(*geeorm/session.Session).CreateTable</title>
<path fill="none" stroke="#8b4513" d="M556.2897,-528.5083C566.2039,-533.327 576.4334,-539.9648 583.4339,-548.8 635.7233,-614.7939 579.3813,-666.418 632.4339,-731.8 636.8235,-737.2098 642.4421,-741.7377 648.4641,-745.4986"/>
<polygon fill="#8b4513" stroke="#8b4513" points="647.033,-748.7064 657.4795,-750.4732 650.4149,-742.5775 647.033,-748.7064"/>
</g>
<!-- (*geeorm/session.Session).Raw -->
<g id="node21" class="node">
<title>(*geeorm/session.Session).Raw</title>
<ellipse fill="#ffe4b5" stroke="#000000" stroke-width="1.5" cx="691.6277" cy="-395.8" rx="27" ry="18"/>
<text text-anchor="middle" x="691.6277" y="-391.6" font-family="Verdana" font-size="14.00" fill="#000000">Raw</text>
</g>
<!-- (*geeorm.Engine).Migrate$1&#45;&gt;(*geeorm/session.Session).Raw -->
<g id="edge11" class="edge">
<title>(*geeorm.Engine).Migrate$1&#45;&gt;(*geeorm/session.Session).Raw</title>
<path fill="none" stroke="#8b4513" d="M554.1249,-505.9385C563.9571,-501.1099 574.6891,-494.965 583.4339,-487.8 610.3328,-465.7607 605.5752,-448.8883 632.4339,-426.8 640.4138,-420.2374 650.0058,-414.489 659.1223,-409.7825"/>
<polygon fill="#8b4513" stroke="#8b4513" points="660.9166,-412.8013 668.3631,-405.2647 657.842,-406.5126 660.9166,-412.8013"/>
</g>
<!-- (*geeorm/session.Session).QueryRows -->
<g id="node22" class="node">
<title>(*geeorm/session.Session).QueryRows</title>
<ellipse fill="#ffe4b5" stroke="#000000" stroke-width="1.5" cx="691.6277" cy="-456.8" rx="42.1533" ry="18"/>
<text text-anchor="middle" x="691.6277" y="-452.6" font-family="Verdana" font-size="14.00" fill="#000000">QueryRows</text>
</g>
<!-- (*geeorm.Engine).Migrate$1&#45;&gt;(*geeorm/session.Session).QueryRows -->
<g id="edge12" class="edge">
<title>(*geeorm.Engine).Migrate$1&#45;&gt;(*geeorm/session.Session).QueryRows</title>
<path fill="none" stroke="#8b4513" d="M555.6972,-506.7534C582.0534,-497.0677 620.6332,-482.8899 649.9647,-472.1108"/>
<polygon fill="#8b4513" stroke="#8b4513" points="651.3473,-475.3316 659.5263,-468.597 648.9327,-468.7612 651.3473,-475.3316"/>
</g>
<!-- (*geeorm/session.Session).Exec -->
<g id="node23" class="node">
<title>(*geeorm/session.Session).Exec</title>
<ellipse fill="#ffe4b5" stroke="#000000" stroke-width="1.5" cx="691.6277" cy="-517.8" rx="27" ry="18"/>
<text text-anchor="middle" x="691.6277" y="-513.6" font-family="Verdana" font-size="14.00" fill="#000000">Exec</text>
</g>
<!-- (*geeorm.Engine).Migrate$1&#45;&gt;(*geeorm/session.Session).Exec -->
<g id="edge15" class="edge">
<title>(*geeorm.Engine).Migrate$1&#45;&gt;(*geeorm/session.Session).Exec</title>
<path fill="none" stroke="#8b4513" d="M563.3034,-517.8C590.4941,-517.8 627.0483,-517.8 654.1871,-517.8"/>
<polygon fill="#8b4513" stroke="#8b4513" points="654.453,-521.3001 664.453,-517.8 654.4529,-514.3001 654.453,-521.3001"/>
</g>
<!-- (*geeorm.Engine).Migrate -->
<g id="node7" class="node">
<title>(*geeorm.Engine).Migrate</title>
<ellipse fill="#add8e6" stroke="#000000" stroke-width="1.5" cx="204.1954" cy="-512.8" rx="29.6517" ry="18"/>
<text text-anchor="middle" x="204.1954" y="-508.6" font-family="Verdana" font-size="14.00" fill="#000000">Migrate</text>
</g>
<!-- (*geeorm.Engine).Migrate&#45;&gt;(*geeorm.Engine).Transaction -->
<g id="edge17" class="edge">
<title>(*geeorm.Engine).Migrate&#45;&gt;(*geeorm.Engine).Transaction</title>
<path fill="none" stroke="#000000" d="M233.6816,-514.6809C254.9628,-516.0384 284.2505,-517.9067 309.3667,-519.5089"/>
<polygon fill="#000000" stroke="#000000" points="309.2762,-523.0101 319.4787,-520.1539 309.7218,-516.0243 309.2762,-523.0101"/>
</g>
<!-- (*geeorm.Engine).Close -->
<g id="node8" class="node">
<title>(*geeorm.Engine).Close</title>
<ellipse fill="#add8e6" stroke="#000000" stroke-width="1.5" cx="204.1954" cy="-573.8" rx="27" ry="18"/>
<text text-anchor="middle" x="204.1954" y="-569.6" font-family="Verdana" font-size="14.00" fill="#000000">Close</text>
</g>
<!-- geeorm/main.OpenDB -->
<g id="node10" class="node">
<title>geeorm/main.OpenDB</title>
<ellipse fill="#ffe4b5" stroke="#000000" stroke-width="1.5" cx="56.6562" cy="-425.8" rx="32.8131" ry="18"/>
<text text-anchor="middle" x="56.6562" y="-421.6" font-family="Verdana" font-size="14.00" fill="#000000">OpenDB</text>
</g>
<!-- geeorm/main.OpenDB&#45;&gt;geeorm.NewEngine -->
<g id="edge19" class="edge">
<title>geeorm/main.OpenDB&#45;&gt;geeorm.NewEngine</title>
<path fill="none" stroke="#8b4513" d="M83.7171,-415.5287C105.9945,-407.0731 137.9262,-394.9532 163.3191,-385.315"/>
<polygon fill="#8b4513" stroke="#8b4513" points="164.5901,-388.5763 172.6973,-381.7554 162.106,-382.0319 164.5901,-388.5763"/>
</g>
<!-- geeorm/main.Migrate -->
<g id="node11" class="node">
<title>geeorm/main.Migrate</title>
<ellipse fill="#ffe4b5" stroke="#000000" stroke-width="1.5" cx="56.6562" cy="-486.8" rx="29.6517" ry="18"/>
<text text-anchor="middle" x="56.6562" y="-482.6" font-family="Verdana" font-size="14.00" fill="#000000">Migrate</text>
</g>
<!-- geeorm/main.Migrate&#45;&gt;(*geeorm.Engine).NewSession -->
<g id="edge21" class="edge">
<title>geeorm/main.Migrate&#45;&gt;(*geeorm.Engine).NewSession</title>
<path fill="none" stroke="#8b4513" d="M85.0906,-481.2525C114.71,-475.9637 162.5214,-468.8 204.1954,-468.8 204.1954,-468.8 204.1954,-468.8 360.96,-468.8 423.1787,-468.8 425.0332,-512.888 475.8415,-548.8 480.6991,-552.2334 485.9594,-555.676 491.1795,-558.9416"/>
<polygon fill="#8b4513" stroke="#8b4513" points="489.4901,-562.0109 499.8484,-564.2373 493.1393,-556.0373 489.4901,-562.0109"/>
</g>
<!-- geeorm/main.Migrate&#45;&gt;(*geeorm.Engine).Migrate -->
<g id="edge22" class="edge">
<title>geeorm/main.Migrate&#45;&gt;(*geeorm.Engine).Migrate</title>
<path fill="none" stroke="#8b4513" d="M85.1032,-491.8131C107.9918,-495.8466 140.3844,-501.5549 165.6097,-506.0003"/>
<polygon fill="#8b4513" stroke="#8b4513" points="165.1287,-509.4693 175.5844,-507.758 166.3436,-502.5756 165.1287,-509.4693"/>
</g>
<!-- geeorm/main.Migrate&#45;&gt;(*geeorm.Engine).Close -->
<g id="edge20" class="edge">
<title>geeorm/main.Migrate&#45;&gt;(*geeorm.Engine).Close</title>
<path fill="none" stroke="#8b4513" d="M78.1096,-499.4505C99.5498,-512.0932 133.1369,-531.8986 160.256,-547.8901"/>
<polygon fill="#8b4513" stroke="#8b4513" points="173.2757,-559.6306 183.6674,-561.6952 176.8313,-553.6009 173.2757,-559.6306"/>
<polyline fill="none" stroke="#8b4513" points="175.0535,-556.6157 170.7465,-554.076 "/>
<polygon fill="none" stroke="#8b4513" points="160.4098,-547.9807 167.6099,-547.5828 170.7465,-554.076 163.5464,-554.4739 160.4098,-547.9807"/>
</g>
</g>
</svg>
