<?xml version="1.0" encoding="UTF-8" standalone="no"?>
<!DOCTYPE svg PUBLIC "-//W3C//DTD SVG 1.1//EN"
 "http://www.w3.org/Graphics/SVG/1.1/DTD/svg11.dtd">
<!-- Generated by graphviz version 2.40.1 (20161225.0304)
 -->
<!-- Title: gocallvis Pages: 1 -->
<svg width="552pt" height="455pt"
 viewBox="0.00 0.00 552.10 454.80" xmlns="http://www.w3.org/2000/svg" xmlns:xlink="http://www.w3.org/1999/xlink">
<g id="graph0" class="graph" transform="scale(1 1) rotate(0) translate(0 454.8)">
<title>gocallvis</title>
<polygon fill="#d3d3d3" stroke="transparent" points="0,0 0,-454.8 552.0971,-454.8 552.0971,0 0,0"/>
<text text-anchor="middle" x="48.8373" y="-8.2" font-family="Arial" font-size="14.00" fill="#000000">geeorm/main</text>
<g id="clust1" class="cluster">
<title>cluster_focus</title>
<polygon fill="#e6ecfa" stroke="#000000" stroke-width=".5" points="8,-32.8 8,-446.8 544.0971,-446.8 544.0971,-32.8 8,-32.8"/>
<text text-anchor="middle" x="276.0486" y="-426.6" font-family="Arial" font-size="18.00" fill="#000000">main</text>
</g>
<g id="clust4" class="cluster">
<title>cluster_geeorm/session</title>
<g id="a_clust4"><a xlink:href="/?f=geeorm/session" xlink:title="package: geeorm/session">
<polygon fill="#ffffe0" stroke="#000000" stroke-width=".8" points="259.1516,-165.8 259.1516,-408.8 375.8042,-408.8 375.8042,-165.8 259.1516,-165.8"/>
<text text-anchor="middle" x="317.4779" y="-390.4" font-family="Tahoma bold" font-size="16.00" fill="#000000">session</text>
</a>
</g>
</g>
<g id="clust5" class="cluster">
<title>cluster_*geeorm/session.Session</title>
<g id="a_clust5"><a xlink:href="/?f=geeorm/session" xlink:title="type: *geeorm/session.Session">
<path fill="#eed8ae" stroke="#000000" stroke-width=".5" d="M279.1516,-173.8C279.1516,-173.8 355.8042,-173.8 355.8042,-173.8 361.8042,-173.8 367.8042,-179.8 367.8042,-185.8 367.8042,-185.8 367.8042,-361.8 367.8042,-361.8 367.8042,-367.8 361.8042,-373.8 355.8042,-373.8 355.8042,-373.8 279.1516,-373.8 279.1516,-373.8 273.1516,-373.8 267.1516,-367.8 267.1516,-361.8 267.1516,-361.8 267.1516,-185.8 267.1516,-185.8 267.1516,-179.8 273.1516,-173.8 279.1516,-173.8"/>
<text text-anchor="middle" x="317.4779" y="-182.3" font-family="Tahoma bold" font-size="15.00" fill="#222222">(*Session)</text>
</a>
</g>
</g>
<g id="clust2" class="cluster">
<title>cluster_geeorm</title>
<g id="a_clust2"><a xlink:href="/?f=geeorm" xlink:title="package: geeorm">
<polygon fill="#ffffe0" stroke="#000000" stroke-width=".8" points="416.8042,-40.8 416.8042,-327.8 536.0971,-327.8 536.0971,-40.8 416.8042,-40.8"/>
<text text-anchor="middle" x="476.4507" y="-309.4" font-family="Tahoma bold" font-size="16.00" fill="#000000">geeorm</text>
</a>
</g>
</g>
<g id="clust3" class="cluster">
<title>cluster_*geeorm.Engine</title>
<g id="a_clust3"><a xlink:href="/?f=geeorm" xlink:title="type: *geeorm.Engine">
<path fill="#eed8ae" stroke="#000000" stroke-width=".5" d="M436.8042,-92.8C436.8042,-92.8 516.0971,-92.8 516.0971,-92.8 522.0971,-92.8 528.0971,-98.8 528.0971,-104.8 528.0971,-104.8 528.0971,-280.8 528.0971,-280.8 528.0971,-286.8 522.0971,-292.8 516.0971,-292.8 516.0971,-292.8 436.8042,-292.8 436.8042,-292.8 430.8042,-292.8 424.8042,-286.8 424.8042,-280.8 424.8042,-280.8 424.8042,-104.8 424.8042,-104.8 424.8042,-98.8 430.8042,-92.8 436.8042,-92.8"/>
<text text-anchor="middle" x="476.4507" y="-101.3" font-family="Tahoma bold" font-size="15.00" fill="#222222">(*Engine)</text>
</a>
</g>
</g>
<!-- geeorm/main.OpenDB -->
<g id="node1" class="node">
<title>geeorm/main.OpenDB</title>
<ellipse fill="#add8e6" stroke="#000000" stroke-width="1.5" cx="317.4779" cy="-58.8" rx="32.8131" ry="18"/>
<text text-anchor="middle" x="317.4779" y="-54.6" font-family="Verdana" font-size="14.00" fill="#000000">OpenDB</text>
</g>
<!-- geeorm.NewEngine -->
<g id="node4" class="node">
<title>geeorm.NewEngine</title>
<ellipse fill="#ffe4b5" stroke="#000000" stroke-width="1.5" cx="476.4507" cy="-66.8" rx="41.7665" ry="18"/>
<text text-anchor="middle" x="476.4507" y="-62.6" font-family="Verdana" font-size="14.00" fill="#000000">NewEngine</text>
</g>
<!-- geeorm/main.OpenDB&#45;&gt;geeorm.NewEngine -->
<g id="edge1" class="edge">
<title>geeorm/main.OpenDB&#45;&gt;geeorm.NewEngine</title>
<path fill="none" stroke="#8b4513" d="M350.032,-60.4382C371.4132,-61.5142 399.8531,-62.9454 424.343,-64.1778"/>
<polygon fill="#8b4513" stroke="#8b4513" points="424.4014,-67.6851 434.5647,-64.6922 424.7533,-60.6939 424.4014,-67.6851"/>
</g>
<!-- geeorm/main.Migrate -->
<g id="node2" class="node">
<title>geeorm/main.Migrate</title>
<ellipse fill="#add8e6" stroke="#000000" stroke-width="1.5" cx="172.5758" cy="-156.8" rx="29.6517" ry="18"/>
<text text-anchor="middle" x="172.5758" y="-152.6" font-family="Verdana" font-size="14.00" fill="#000000">Migrate</text>
</g>
<!-- geeorm/main.Migrate&#45;&gt;geeorm/main.OpenDB -->
<g id="edge2" class="edge">
<title>geeorm/main.Migrate&#45;&gt;geeorm/main.OpenDB</title>
<path fill="none" stroke="#000000" d="M187.0447,-140.7884C199.6193,-127.5342 218.8084,-108.8312 238.1516,-95.8 251.3612,-86.9008 267.0515,-79.0865 280.9768,-72.9604"/>
<polygon fill="#000000" stroke="#000000" points="282.4546,-76.1353 290.2833,-68.9964 279.7115,-69.6951 282.4546,-76.1353"/>
</g>
<!-- (*geeorm.Engine).Close -->
<g id="node5" class="node">
<title>(*geeorm.Engine).Close</title>
<ellipse fill="#ffe4b5" stroke="#000000" stroke-width="1.5" cx="476.4507" cy="-144.8" rx="27" ry="18"/>
<text text-anchor="middle" x="476.4507" y="-140.6" font-family="Verdana" font-size="14.00" fill="#000000">Close</text>
</g>
<!-- geeorm/main.Migrate&#45;&gt;(*geeorm.Engine).Close -->
<g id="edge3" class="edge">
<title>geeorm/main.Migrate&#45;&gt;(*geeorm.Engine).Close</title>
<path fill="none" stroke="#8b4513" d="M192.5373,-143.244C205.0415,-135.5894 221.8303,-126.7796 238.1516,-122.8 306.6568,-106.0964 326.9311,-113.3272 396.8042,-122.8 406.4772,-124.1114 416.6353,-126.28 426.337,-128.7575"/>
<polygon fill="#8b4513" stroke="#8b4513" points="441.8244,-136.9028 452.4038,-136.3324 443.7778,-130.1809 441.8244,-136.9028"/>
<polyline fill="none" stroke="#8b4513" points="442.8011,-133.5418 437.9997,-132.1466 "/>
<polygon fill="none" stroke="#8b4513" points="426.4764,-128.7979 433.3543,-126.6311 437.9997,-132.1466 431.1218,-134.3133 426.4764,-128.7979"/>
</g>
<!-- (*geeorm.Engine).NewSession -->
<g id="node6" class="node">
<title>(*geeorm.Engine).NewSession</title>
<ellipse fill="#ffe4b5" stroke="#000000" stroke-width="1.5" cx="476.4507" cy="-205.8" rx="43.7935" ry="18"/>
<text text-anchor="middle" x="476.4507" y="-201.6" font-family="Verdana" font-size="14.00" fill="#000000">NewSession</text>
</g>
<!-- geeorm/main.Migrate&#45;&gt;(*geeorm.Engine).NewSession -->
<g id="edge4" class="edge">
<title>geeorm/main.Migrate&#45;&gt;(*geeorm.Engine).NewSession</title>
<path fill="none" stroke="#8b4513" d="M198.773,-148.4374C242.4155,-136.0926 331.6387,-117.7124 396.8042,-149.8 409.8834,-156.2402 405.5655,-166.5137 416.8042,-175.8 422.5174,-180.5207 429.0974,-184.7547 435.7549,-188.4506"/>
<polygon fill="#8b4513" stroke="#8b4513" points="434.3195,-191.649 444.8072,-193.1522 437.546,-185.4369 434.3195,-191.649"/>
</g>
<!-- (*geeorm.Engine).Migrate -->
<g id="node7" class="node">
<title>(*geeorm.Engine).Migrate</title>
<ellipse fill="#ffe4b5" stroke="#000000" stroke-width="1.5" cx="476.4507" cy="-266.8" rx="29.6517" ry="18"/>
<text text-anchor="middle" x="476.4507" y="-262.6" font-family="Verdana" font-size="14.00" fill="#000000">Migrate</text>
</g>
<!-- geeorm/main.Migrate&#45;&gt;(*geeorm.Engine).Migrate -->
<g id="edge7" class="edge">
<title>geeorm/main.Migrate&#45;&gt;(*geeorm.Engine).Migrate</title>
<path fill="none" stroke="#8b4513" d="M202.3543,-155.0565C251.6188,-152.7185 347.4663,-150.645 375.8042,-167.8 406.3201,-186.2736 390.7114,-212.4759 416.8042,-236.8 423.9024,-243.4171 432.7369,-248.9146 441.4131,-253.3172"/>
<polygon fill="#8b4513" stroke="#8b4513" points="440.1363,-256.5842 450.6758,-257.6659 443.1111,-250.2478 440.1363,-256.5842"/>
</g>
<!-- (*geeorm/session.Session).Raw -->
<g id="node8" class="node">
<title>(*geeorm/session.Session).Raw</title>
<ellipse fill="#ffe4b5" stroke="#000000" stroke-width="1.5" cx="317.4779" cy="-225.8" rx="27" ry="18"/>
<text text-anchor="middle" x="317.4779" y="-221.6" font-family="Verdana" font-size="14.00" fill="#000000">Raw</text>
</g>
<!-- geeorm/main.Migrate&#45;&gt;(*geeorm/session.Session).Raw -->
<g id="edge5" class="edge">
<title>geeorm/main.Migrate&#45;&gt;(*geeorm/session.Session).Raw</title>
<path fill="none" stroke="#8b4513" d="M193.862,-169.4182C211.1365,-179.3971 236.2892,-193.3419 259.1516,-203.8 266.988,-207.3847 275.5922,-210.8678 283.7286,-213.9657"/>
<polygon fill="#8b4513" stroke="#8b4513" points="282.7451,-217.334 293.338,-217.5344 285.1821,-210.7719 282.7451,-217.334"/>
</g>
<!-- (*geeorm/session.Session).Exec -->
<g id="node9" class="node">
<title>(*geeorm/session.Session).Exec</title>
<ellipse fill="#ffe4b5" stroke="#000000" stroke-width="1.5" cx="317.4779" cy="-286.8" rx="27" ry="18"/>
<text text-anchor="middle" x="317.4779" y="-282.6" font-family="Verdana" font-size="14.00" fill="#000000">Exec</text>
</g>
<!-- geeorm/main.Migrate&#45;&gt;(*geeorm/session.Session).Exec -->
<g id="edge6" class="edge">
<title>geeorm/main.Migrate&#45;&gt;(*geeorm/session.Session).Exec</title>
<path fill="none" stroke="#8b4513" d="M184.1269,-173.7773C199.3609,-195.2131 227.9178,-232.2504 259.1516,-256.8 267.0585,-263.0148 276.452,-268.5122 285.3652,-273.0474"/>
<polygon fill="#8b4513" stroke="#8b4513" points="283.8709,-276.2125 294.3973,-277.415 286.9183,-269.9107 283.8709,-276.2125"/>
</g>
<!-- (*geeorm/session.Session).QueryRows -->
<g id="node10" class="node">
<title>(*geeorm/session.Session).QueryRows</title>
<ellipse fill="#ffe4b5" stroke="#000000" stroke-width="1.5" cx="317.4779" cy="-347.8" rx="42.1533" ry="18"/>
<text text-anchor="middle" x="317.4779" y="-343.6" font-family="Verdana" font-size="14.00" fill="#000000">QueryRows</text>
</g>
<!-- geeorm/main.Migrate&#45;&gt;(*geeorm/session.Session).QueryRows -->
<g id="edge8" class="edge">
<title>geeorm/main.Migrate&#45;&gt;(*geeorm/session.Session).QueryRows</title>
<path fill="none" stroke="#8b4513" d="M178.206,-174.7072C189.1351,-206.9723 216.0117,-275.4433 259.1516,-317.8 264.3466,-322.9008 270.585,-327.325 277.0214,-331.0924"/>
<polygon fill="#8b4513" stroke="#8b4513" points="275.3752,-334.1811 285.8418,-335.8246 278.6846,-328.0128 275.3752,-334.1811"/>
</g>
<!-- geeorm/main.main -->
<g id="node3" class="node">
<title>geeorm/main.main</title>
<ellipse fill="#add8e6" stroke="#000000" stroke-width=".5" cx="43" cy="-156.8" rx="27" ry="18"/>
<text text-anchor="middle" x="43" y="-152.6" font-family="Verdana" font-size="14.00" fill="#000000">main</text>
</g>
<!-- geeorm/main.main&#45;&gt;geeorm/main.Migrate -->
<g id="edge9" class="edge">
<title>geeorm/main.main&#45;&gt;geeorm/main.Migrate</title>
<path fill="none" stroke="#000000" d="M70.1633,-156.8C88.2371,-156.8 112.289,-156.8 132.5423,-156.8"/>
<polygon fill="#000000" stroke="#000000" points="132.7354,-160.3001 142.7354,-156.8 132.7353,-153.3001 132.7354,-160.3001"/>
</g>
</g>
</svg>
