<?xml version="1.0" encoding="UTF-8" standalone="no"?>
<!DOCTYPE svg PUBLIC "-//W3C//DTD SVG 1.1//EN"
 "http://www.w3.org/Graphics/SVG/1.1/DTD/svg11.dtd">
<!-- Generated by graphviz version 2.40.1 (20161225.0304)
 -->
<!-- Title: gocallvis Pages: 1 -->
<svg width="474pt" height="398pt"
 viewBox="0.00 0.00 473.83 397.80" xmlns="http://www.w3.org/2000/svg" xmlns:xlink="http://www.w3.org/1999/xlink">
<g id="graph0" class="graph" transform="scale(1 1) rotate(0) translate(0 397.8)">
<title>gocallvis</title>
<polygon fill="#d3d3d3" stroke="transparent" points="0,0 0,-397.8 473.833,-397.8 473.833,0 0,0"/>
<text text-anchor="middle" x="48.8373" y="-8.2" font-family="Arial" font-size="14.00" fill="#000000">geeorm/main</text>
<g id="clust1" class="cluster">
<title>cluster_focus</title>
<polygon fill="#e6ecfa" stroke="#000000" stroke-width=".5" points="8,-32.8 8,-389.8 465.833,-389.8 465.833,-32.8 8,-32.8"/>
<text text-anchor="middle" x="236.9165" y="-369.6" font-family="Arial" font-size="18.00" fill="#000000">schema</text>
</g>
<g id="clust7" class="cluster">
<title>cluster_geeorm/session</title>
<g id="a_clust7"><a xlink:href="/?f=geeorm/session" xlink:title="package: geeorm/session">
<polygon fill="#ffffe0" stroke="#000000" stroke-width=".8" points="22.4904,-169.8 22.4904,-351.8 117.4904,-351.8 117.4904,-169.8 22.4904,-169.8"/>
<text text-anchor="middle" x="69.9904" y="-333.4" font-family="Tahoma bold" font-size="16.00" fill="#000000">session</text>
</a>
</g>
</g>
<g id="clust8" class="cluster">
<title>cluster_*geeorm/session.Session</title>
<g id="a_clust8"><a xlink:href="/?f=geeorm/session" xlink:title="type: *geeorm/session.Session">
<path fill="#eed8ae" stroke="#000000" stroke-width=".5" d="M42.4904,-177.8C42.4904,-177.8 97.4904,-177.8 97.4904,-177.8 103.4904,-177.8 109.4904,-183.8 109.4904,-189.8 109.4904,-189.8 109.4904,-304.8 109.4904,-304.8 109.4904,-310.8 103.4904,-316.8 97.4904,-316.8 97.4904,-316.8 42.4904,-316.8 42.4904,-316.8 36.4904,-316.8 30.4904,-310.8 30.4904,-304.8 30.4904,-304.8 30.4904,-189.8 30.4904,-189.8 30.4904,-183.8 36.4904,-177.8 42.4904,-177.8"/>
<text text-anchor="middle" x="69.9904" y="-186.3" font-family="Tahoma bold" font-size="15.00" fill="#222222">(*Session)</text>
</a>
</g>
</g>
<g id="clust5" class="cluster">
<title>cluster_geeorm/dialect</title>
<g id="a_clust5"><a xlink:href="/?f=geeorm/dialect" xlink:title="package: geeorm/dialect">
<polygon fill="#ffffe0" stroke="#000000" stroke-width=".8" points="337.6852,-230.8 337.6852,-351.8 457.833,-351.8 457.833,-230.8 337.6852,-230.8"/>
<text text-anchor="middle" x="397.7591" y="-333.4" font-family="Tahoma bold" font-size="16.00" fill="#000000">dialect</text>
</a>
</g>
</g>
<g id="clust6" class="cluster">
<title>cluster_*geeorm/dialect.sqlite3</title>
<g id="a_clust6"><a xlink:href="/?f=geeorm/dialect" xlink:title="type: *geeorm/dialect.sqlite3">
<path fill="#eed8ae" stroke="#000000" stroke-width=".5" d="M357.6852,-238.8C357.6852,-238.8 437.833,-238.8 437.833,-238.8 443.833,-238.8 449.833,-244.8 449.833,-250.8 449.833,-250.8 449.833,-304.8 449.833,-304.8 449.833,-310.8 443.833,-316.8 437.833,-316.8 437.833,-316.8 357.6852,-316.8 357.6852,-316.8 351.6852,-316.8 345.6852,-310.8 345.6852,-304.8 345.6852,-304.8 345.6852,-250.8 345.6852,-250.8 345.6852,-244.8 351.6852,-238.8 357.6852,-238.8"/>
<text text-anchor="middle" x="397.7591" y="-247.3" font-family="Tahoma bold" font-size="15.00" fill="#222222">(*sqlite3)</text>
</a>
</g>
</g>
<g id="clust3" class="cluster">
<title>cluster_geeorm</title>
<g id="a_clust3"><a xlink:href="/?f=geeorm" xlink:title="package: geeorm">
<polygon fill="#ffffe0" stroke="#000000" stroke-width=".8" points="16,-40.8 16,-161.8 122.9809,-161.8 122.9809,-40.8 16,-40.8"/>
<text text-anchor="middle" x="69.4904" y="-143.4" font-family="Tahoma bold" font-size="16.00" fill="#000000">geeorm</text>
</a>
</g>
</g>
<g id="clust4" class="cluster">
<title>cluster_*geeorm.Engine</title>
<g id="a_clust4"><a xlink:href="/?f=geeorm" xlink:title="type: *geeorm.Engine">
<path fill="#eed8ae" stroke="#000000" stroke-width=".5" d="M36,-48.8C36,-48.8 102.9809,-48.8 102.9809,-48.8 108.9809,-48.8 114.9809,-54.8 114.9809,-60.8 114.9809,-60.8 114.9809,-114.8 114.9809,-114.8 114.9809,-120.8 108.9809,-126.8 102.9809,-126.8 102.9809,-126.8 36,-126.8 36,-126.8 30,-126.8 24,-120.8 24,-114.8 24,-114.8 24,-60.8 24,-60.8 24,-54.8 30,-48.8 36,-48.8"/>
<text text-anchor="middle" x="69.4904" y="-57.3" font-family="Tahoma bold" font-size="15.00" fill="#222222">(*Engine)</text>
</a>
</g>
</g>
<g id="clust2" class="cluster">
<title>cluster_*geeorm/schema.Schema</title>
<g id="a_clust2"><a xlink:title="type: *geeorm/schema.Schema">
<path fill="#b0c4de" stroke="#000000" stroke-width=".5" d="M185.9809,-82.8C185.9809,-82.8 276.6852,-82.8 276.6852,-82.8 282.6852,-82.8 288.6852,-88.8 288.6852,-94.8 288.6852,-94.8 288.6852,-209.8 288.6852,-209.8 288.6852,-215.8 282.6852,-221.8 276.6852,-221.8 276.6852,-221.8 185.9809,-221.8 185.9809,-221.8 179.9809,-221.8 173.9809,-215.8 173.9809,-209.8 173.9809,-209.8 173.9809,-94.8 173.9809,-94.8 173.9809,-88.8 179.9809,-82.8 185.9809,-82.8"/>
<text text-anchor="middle" x="231.3331" y="-91.3" font-family="Arial" font-size="15.00" fill="#222222">(*Schema)</text>
</a>
</g>
</g>
<!-- geeorm/schema.Parse -->
<g id="node1" class="node">
<title>geeorm/schema.Parse</title>
<ellipse fill="#add8e6" stroke="#000000" stroke-width="1.5" cx="231.3331" cy="-290.8" rx="27" ry="18"/>
<text text-anchor="middle" x="231.3331" y="-286.6" font-family="Verdana" font-size="14.00" fill="#000000">Parse</text>
</g>
<!-- (*geeorm/dialect.sqlite3).DataTypeOf -->
<g id="node5" class="node">
<title>(*geeorm/dialect.sqlite3).DataTypeOf</title>
<ellipse fill="#ffe4b5" stroke="#000000" stroke-width="1.5" cx="397.7591" cy="-290.8" rx="44.1479" ry="18"/>
<text text-anchor="middle" x="397.7591" y="-286.6" font-family="Verdana" font-size="14.00" fill="#000000">DataTypeOf</text>
</g>
<!-- geeorm/schema.Parse&#45;&gt;(*geeorm/dialect.sqlite3).DataTypeOf -->
<g id="edge1" class="edge">
<title>geeorm/schema.Parse&#45;&gt;(*geeorm/dialect.sqlite3).DataTypeOf</title>
<path fill="none" stroke="#8b4513" stroke-dasharray="5,2" d="M258.4427,-290.8C281.3298,-290.8 314.8159,-290.8 343.2223,-290.8"/>
<polygon fill="#8b4513" stroke="#8b4513" points="343.429,-294.3001 353.4289,-290.8 343.4289,-287.3001 343.429,-294.3001"/>
</g>
<!-- (*geeorm/schema.Schema).GetField -->
<g id="node2" class="node">
<title>(*geeorm/schema.Schema).GetField</title>
<ellipse fill="#add8e6" stroke="#000000" stroke-width="1.5" cx="231.3331" cy="-134.8" rx="32.4385" ry="18"/>
<text text-anchor="middle" x="231.3331" y="-130.6" font-family="Verdana" font-size="14.00" fill="#000000">GetField</text>
</g>
<!-- (*geeorm/schema.Schema).RecordValues -->
<g id="node3" class="node">
<title>(*geeorm/schema.Schema).RecordValues</title>
<ellipse fill="#add8e6" stroke="#000000" stroke-width="1.5" cx="231.3331" cy="-195.8" rx="49.2048" ry="18"/>
<text text-anchor="middle" x="231.3331" y="-191.6" font-family="Verdana" font-size="14.00" fill="#000000">RecordValues</text>
</g>
<!-- (*geeorm.Engine).Migrate$1 -->
<g id="node4" class="node">
<title>(*geeorm.Engine).Migrate$1</title>
<ellipse fill="#ffe4b5" stroke="#000000" stroke-dasharray="1,5" cx="69.4904" cy="-100.8" rx="37.4809" ry="18"/>
<text text-anchor="middle" x="69.4904" y="-96.6" font-family="Verdana" font-size="14.00" fill="#000000">Migrate$1</text>
</g>
<!-- (*geeorm.Engine).Migrate$1&#45;&gt;(*geeorm/schema.Schema).GetField -->
<g id="edge3" class="edge">
<title>(*geeorm.Engine).Migrate$1&#45;&gt;(*geeorm/schema.Schema).GetField</title>
<path fill="none" stroke="#8b4513" d="M104.2097,-108.0939C129.7409,-113.4575 164.4998,-120.7596 191.219,-126.3728"/>
<polygon fill="#8b4513" stroke="#8b4513" points="190.5237,-129.8031 201.0297,-128.4338 191.9629,-122.9526 190.5237,-129.8031"/>
</g>
<!-- (*geeorm/session.Session).Model -->
<g id="node6" class="node">
<title>(*geeorm/session.Session).Model</title>
<ellipse fill="#ffe4b5" stroke="#000000" stroke-width="1.5" cx="69.4904" cy="-290.8" rx="27" ry="18"/>
<text text-anchor="middle" x="69.4904" y="-286.6" font-family="Verdana" font-size="14.00" fill="#000000">Model</text>
</g>
<!-- (*geeorm/session.Session).Model&#45;&gt;geeorm/schema.Parse -->
<g id="edge2" class="edge">
<title>(*geeorm/session.Session).Model&#45;&gt;geeorm/schema.Parse</title>
<path fill="none" stroke="#8b4513" d="M96.5793,-290.8C123.3036,-290.8 164.3638,-290.8 194.1373,-290.8"/>
<polygon fill="#8b4513" stroke="#8b4513" points="194.1559,-294.3001 204.1559,-290.8 194.1558,-287.3001 194.1559,-294.3001"/>
</g>
<!-- (*geeorm/session.Session).Insert -->
<g id="node7" class="node">
<title>(*geeorm/session.Session).Insert</title>
<ellipse fill="#ffe4b5" stroke="#000000" stroke-width="1.5" cx="69.4904" cy="-229.8" rx="27" ry="18"/>
<text text-anchor="middle" x="69.4904" y="-225.6" font-family="Verdana" font-size="14.00" fill="#000000">Insert</text>
</g>
<!-- (*geeorm/session.Session).Insert&#45;&gt;(*geeorm/schema.Schema).RecordValues -->
<g id="edge4" class="edge">
<title>(*geeorm/session.Session).Insert&#45;&gt;(*geeorm/schema.Schema).RecordValues</title>
<path fill="none" stroke="#8b4513" d="M95.4933,-224.3373C117.7759,-219.6562 150.5775,-212.7652 178.3653,-206.9275"/>
<polygon fill="#8b4513" stroke="#8b4513" points="179.2806,-210.3117 188.3473,-204.8305 177.8414,-203.4612 179.2806,-210.3117"/>
</g>
</g>
</svg>
